<svg xmlns="http://www.w3.org/2000/svg" version="1.1" xmlns:xlink="http://www.w3.org/1999/xlink" xmlns:svgjs="http://svgjs.dev/svgjs" viewBox="0 0 800 800"><defs><linearGradient x1="50%" y1="0%" x2="50%" y2="100%" id="ffflurry-grad" gradientTransform="rotate(270)"><stop stop-color="hsl(203, 100%, 12%)" stop-opacity="1" offset="0%"></stop><stop stop-color="hsl(203, 100%, 12%)" stop-opacity="1" offset="45%"></stop><stop stop-color="hsl(191, 100%, 25%)" stop-opacity="1" offset="100%"></stop></linearGradient></defs><rect width="100%" height="100%" fill="hsl(203, 100%, 12%)"></rect><g fill="url(#ffflurry-grad)"><rect width="320" height="2" x="606" y="275" rx="1" transform="rotate(55, 766, 276)" opacity="0.12"></rect><rect width="885" height="2" x="-89.5" y="283" rx="1" transform="rotate(55, 353, 284)" opacity="0.19"></rect><rect width="1024" height="2" x="172" y="258" rx="1" transform="rotate(55, 684, 259)" opacity="0.55"></rect><rect width="1074" height="2" x="-306" y="755" rx="1" transform="rotate(55, 231, 756)" opacity="0.16"></rect><rect width="536" height="2" x="-212" y="318" rx="1" transform="rotate(55, 56, 319)" opacity="0.29"></rect><rect width="478" height="2" x="-118" y="51" rx="1" transform="rotate(55, 121, 52)" opacity="0.97"></rect><rect width="271" height="2" x="330.5" y="350" rx="1" transform="rotate(55, 466, 351)" opacity="0.09"></rect><rect width="1025" height="2" x="-230.5" y="524" rx="1" transform="rotate(55, 282, 525)" opacity="0.60"></rect><rect width="202" height="2" x="-53" y="658" rx="1" transform="rotate(55, 48, 659)" opacity="0.18"></rect><rect width="559" height="2" x="202.5" y="111" rx="1" transform="rotate(55, 482, 112)" opacity="0.56"></rect><rect width="730" height="2" x="-88" y="215" rx="1" transform="rotate(55, 277, 216)" opacity="0.23"></rect><rect width="1239" height="2" x="-8.5" y="363" rx="1" transform="rotate(55, 611, 364)" opacity="0.68"></rect><rect width="1227" height="2" x="-218.5" y="644" rx="1" transform="rotate(55, 395, 645)" opacity="0.39"></rect><rect width="895" height="2" x="300.5" y="190" rx="1" transform="rotate(55, 748, 191)" opacity="0.47"></rect><rect width="215" height="2" x="416.5" y="465" rx="1" transform="rotate(55, 524, 466)" opacity="0.18"></rect><rect width="540" height="2" x="60" y="596" rx="1" transform="rotate(55, 330, 597)" opacity="0.15"></rect><rect width="417" height="2" x="316.5" y="762" rx="1" transform="rotate(55, 525, 763)" opacity="0.79"></rect><rect width="1005" height="2" x="-245.5" y="111" rx="1" transform="rotate(55, 257, 112)" opacity="0.24"></rect><rect width="1147" height="2" x="-210.5" y="62" rx="1" transform="rotate(55, 363, 63)" opacity="0.95"></rect><rect width="718" height="2" x="261" y="709" rx="1" transform="rotate(55, 620, 710)" opacity="0.52"></rect><rect width="208" height="2" x="180" y="666" rx="1" transform="rotate(55, 284, 667)" opacity="0.84"></rect><rect width="791" height="2" x="-144.5" y="443" rx="1" transform="rotate(55, 251, 444)" opacity="0.37"></rect><rect width="911" height="2" x="36.5" y="617" rx="1" transform="rotate(55, 492, 618)" opacity="0.17"></rect><rect width="553" height="2" x="295.5" y="59" rx="1" transform="rotate(55, 572, 60)" opacity="0.30"></rect><rect width="252" height="2" x="33" y="160" rx="1" transform="rotate(55, 159, 161)" opacity="0.17"></rect><rect width="268" height="2" x="38" y="446" rx="1" transform="rotate(55, 172, 447)" opacity="0.22"></rect><rect width="641" height="2" x="365.5" y="338" rx="1" transform="rotate(55, 686, 339)" opacity="0.58"></rect><rect width="747" height="2" x="8.5" y="504" rx="1" transform="rotate(55, 382, 505)" opacity="0.89"></rect><rect width="782" height="2" x="109" y="683" rx="1" transform="rotate(55, 500, 684)" opacity="0.50"></rect><rect width="652" height="2" x="96" y="206" rx="1" transform="rotate(55, 422, 207)" opacity="0.52"></rect><rect width="584" height="2" x="-252" y="503" rx="1" transform="rotate(55, 40, 504)" opacity="0.33"></rect><rect width="67" height="2" x="393.5" y="742" rx="1" transform="rotate(55, 427, 743)" opacity="0.59"></rect><rect width="140" height="2" x="-42" y="424" rx="1" transform="rotate(55, 28, 425)" opacity="0.70"></rect><rect width="346" height="2" x="597" y="45" rx="1" transform="rotate(55, 770, 46)" opacity="0.66"></rect><rect width="158" height="2" x="131" y="342" rx="1" transform="rotate(55, 210, 343)" opacity="0.94"></rect><rect width="598" height="2" x="389" y="576" rx="1" transform="rotate(55, 688, 577)" opacity="0.80"></rect><rect width="859" height="2" x="317.5" y="654" rx="1" transform="rotate(55, 747, 655)" opacity="0.09"></rect><rect width="489" height="2" x="-218.5" y="236" rx="1" transform="rotate(55, 26, 237)" opacity="0.59"></rect><rect width="1081" height="2" x="-9.5" y="281" rx="1" transform="rotate(55, 531, 282)" opacity="0.99"></rect><rect width="888" height="2" x="-258" y="657" rx="1" transform="rotate(55, 186, 658)" opacity="0.44"></rect><rect width="1118" height="2" x="173" y="756" rx="1" transform="rotate(55, 732, 757)" opacity="0.87"></rect><rect width="746" height="2" x="69" y="431" rx="1" transform="rotate(55, 442, 432)" opacity="0.41"></rect><rect width="454" height="2" x="-160" y="185" rx="1" transform="rotate(55, 67, 186)" opacity="0.69"></rect><rect width="551" height="2" x="406.5" y="38" rx="1" transform="rotate(55, 682, 39)" opacity="0.80"></rect><rect width="610" height="2" x="-185" y="496" rx="1" transform="rotate(55, 120, 497)" opacity="0.25"></rect><rect width="274" height="2" x="578" y="118" rx="1" transform="rotate(55, 715, 119)" opacity="0.57"></rect><rect width="897" height="2" x="-383.5" y="576" rx="1" transform="rotate(55, 65, 577)" opacity="0.23"></rect><rect width="627" height="2" x="157.5" y="543" rx="1" transform="rotate(55, 471, 544)" opacity="0.12"></rect><rect width="148" height="2" x="140" y="41" rx="1" transform="rotate(55, 214, 42)" opacity="0.17"></rect><rect width="241" height="2" x="497.5" y="458" rx="1" transform="rotate(55, 618, 459)" opacity="0.73"></rect><rect width="485" height="2" x="341.5" y="571" rx="1" transform="rotate(55, 584, 572)" opacity="0.28"></rect><rect width="591" height="2" x="-200.5" y="392" rx="1" transform="rotate(55, 95, 393)" opacity="0.97"></rect><rect width="553" height="2" x="466.5" y="418" rx="1" transform="rotate(55, 743, 419)" opacity="0.56"></rect><rect width="346" height="2" x="571" y="503" rx="1" transform="rotate(55, 744, 504)" opacity="0.71"></rect><rect width="1034" height="2" x="-362" y="263" rx="1" transform="rotate(55, 155, 264)" opacity="0.14"></rect><rect width="1123" height="2" x="-384.5" y="568" rx="1" transform="rotate(55, 177, 569)" opacity="0.08"></rect><rect width="1132" height="2" x="-231" y="382" rx="1" transform="rotate(55, 335, 383)" opacity="0.22"></rect><rect width="309" height="2" x="-67.5" y="746" rx="1" transform="rotate(55, 87, 747)" opacity="0.39"></rect><rect width="231" height="2" x="648.5" y="347" rx="1" transform="rotate(55, 764, 348)" opacity="0.43"></rect><rect width="164" height="2" x="524" y="198" rx="1" transform="rotate(55, 606, 199)" opacity="0.12"></rect><rect width="92" height="2" x="300" y="753" rx="1" transform="rotate(55, 346, 754)" opacity="0.72"></rect><rect width="200" height="2" x="-59" y="72" rx="1" transform="rotate(55, 41, 73)" opacity="0.86"></rect></g></svg>